<svg class="svg-icon"
    style="width: 1em; height: 1em;vertical-align: middle;fill:  #ef4d23;overflow: hidden;"
    viewBox="0 0 1024 1024" version="1.1" xmlns="http://www.w3.org/2000/svg">
    <path
        d="M768 96a160 160 0 1 1-160 160A160 160 0 0 1 768 96z m0-32a192 192 0 1 0 135.84 56.16A192 192 0 0 0 768 64z"
        fill="#ef4d23" />
    <path d="M768 144a16 16 0 0 0-16 16v192a16 16 0 0 0 32 0V160a16 16 0 0 0-16-16z" fill="#ef4d23" />
    <path d="M864 240H672a16 16 0 0 0 0 32h192a16 16 0 0 0 0-32z" fill="#ef4d23" />
    <path
        d="M224 208h96v96h-96z m160 0h96v96h-96zM224 368h96v96h-96z m160 0h96v96h-96zM224 528h96v96h-96z m160 0h96v96h-96z m-32 176a96 96 0 0 0-96 96v128h32v-128a64 64 0 0 1 128 0v128h32v-128a96 96 0 0 0-96-96z"
        fill="" />
    <path
        d="M592 912v48H128a64 64 0 0 1-64-64V128a64 64 0 0 1 64-64h392a24 24 0 0 1 0 48H128a16 16 0 0 0-16 16v768a16 16 0 0 0 16 16z"
        fill="" />
    <path
        d="M856 752H625.92l49.6-49.6a24 24 0 0 0-33.92-33.92l-90.56 90.56a26.08 26.08 0 0 0-5.28 7.84 22.4 22.4 0 0 0 0 17.6 25.12 25.12 0 0 0 13.12 13.12 23.36 23.36 0 0 0 8.8 1.76h288a24 24 0 0 0 0-48z"
        fill="" />
    <path
        d="M600 480a24 24 0 0 0-24 24v112a24 24 0 0 0 48 0V576h288v336H624v-56a24 24 0 0 0-48 0V960h320a64 64 0 0 0 64-64V592a64 64 0 0 0-64-64H624v-24a24 24 0 0 0-24-24z"
        fill="" />
</svg>