<?xml version="1.0" standalone="no"?>
<!DOCTYPE svg PUBLIC "-//W3C//DTD SVG 20010904//EN" "http://www.w3.org/TR/2001/REC-SVG-20010904/DTD/svg10.dtd">
<svg version="1.0" xmlns="http://www.w3.org/2000/svg"
    width="135.000000pt" height="107.000000pt" viewBox="0 0 135.000000 107.000000"
    preserveAspectRatio="xMidYMid meet">

    <g transform="translate(0.000000,107.000000) scale(0.100000,-0.100000)"
        fill="#ef4d23" stroke="none">
        <path
            d="M110 987 c-39 -20 -50 -53 -48 -146 3 -88 16 -112 52 -98 13 5 16 22
16 97 l0 90 79 0 c44 0 86 3 95 6 21 8 21 50 0 58 -28 11 -168 6 -194 -7z" />
        <path
            d="M1055 986 c-16 -12 -18 -18 -9 -33 9 -15 27 -19 98 -21 l86 -3 0 -83
c0 -64 4 -87 16 -97 11 -9 20 -10 32 -2 14 8 17 28 17 106 0 87 -2 99 -23 119
-19 20 -35 23 -110 26 -66 3 -92 0 -107 -12z" />
        <path
            d="M222 838 c-9 -9 -12 -93 -12 -315 0 -272 2 -304 16 -310 9 -3 24 -2
33 4 14 9 16 47 19 308 2 298 0 325 -32 325 -7 0 -17 -5 -24 -12z" />
        <path
            d="M367 843 c-11 -11 -8 -431 3 -438 6 -3 19 -3 30 0 19 6 20 15 20 220
0 185 -2 214 -16 219 -20 8 -29 8 -37 -1z" />
        <path
            d="M512 838 c-9 -9 -12 -93 -12 -314 0 -296 0 -303 20 -309 48 -15 50
-3 50 314 0 297 -3 321 -35 321 -6 0 -16 -5 -23 -12z" />
        <path
            d="M663 843 c-16 -6 -19 -428 -3 -438 6 -3 19 -3 30 0 19 6 20 15 20
220 0 185 -2 214 -16 219 -9 3 -16 6 -17 5 -1 0 -8 -3 -14 -6z" />
        <path
            d="M802 838 c-9 -9 -12 -70 -12 -214 0 -172 2 -203 16 -215 11 -9 20
-10 32 -2 15 9 17 36 20 213 2 202 -2 230 -32 230 -7 0 -17 -5 -24 -12z" />
        <path
            d="M953 843 c-10 -3 -13 -57 -13 -218 0 -187 2 -214 16 -219 40 -15 44
7 44 224 0 180 -2 209 -16 214 -9 3 -16 6 -17 5 -1 0 -8 -3 -14 -6z" />
        <path
            d="M1092 838 c-9 -9 -12 -93 -12 -314 0 -296 0 -303 20 -309 48 -15 50
-3 50 314 0 297 -3 321 -35 321 -6 0 -16 -5 -23 -12z" />
        <path
            d="M70 305 c-8 -10 -11 -44 -9 -106 4 -84 6 -92 31 -114 25 -21 36 -23
125 -22 95 2 98 3 101 26 5 34 -12 41 -105 41 l-83 0 0 89 c0 72 -3 90 -16 95
-23 9 -30 8 -44 -9z" />
        <path
            d="M1242 308 c-7 -7 -12 -44 -12 -95 l0 -83 -76 0 c-41 0 -84 -5 -95
-10 -23 -13 -25 -46 -3 -54 25 -9 170 -7 197 3 33 13 47 58 47 150 0 74 -9
101 -35 101 -6 0 -16 -5 -23 -12z" />
        <path
            d="M364 297 c-3 -8 -4 -30 -2 -49 2 -28 7 -33 28 -33 23 0 25 4 25 45 0
39 -3 45 -23 48 -13 2 -24 -3 -28 -11z" />
        <path
            d="M654 297 c-3 -8 -4 -30 -2 -49 2 -28 7 -33 28 -33 23 0 25 4 25 45 0
39 -3 45 -23 48 -13 2 -24 -3 -28 -11z" />
        <path
            d="M797 303 c-4 -3 -7 -21 -7 -38 0 -40 24 -64 48 -48 35 22 26 93 -12
93 -12 0 -26 -3 -29 -7z" />
        <path
            d="M944 297 c-3 -8 -4 -30 -2 -49 2 -28 7 -33 28 -33 23 0 25 4 25 45 0
39 -3 45 -23 48 -13 2 -24 -3 -28 -11z" />
    </g>
</svg>